<svg width="40" height="40" viewBox="0 0 40 40" fill="none" xmlns="http://www.w3.org/2000/svg">
<g clip-path="url(#clip0_2171_15937)">
<path d="M38.4163 8.82584L20.2547 0.0581812C20.0937 -0.0194751 19.9062 -0.0194751 19.7453 0.0581812L1.58361 8.82584C1.38111 8.92357 1.25244 9.12865 1.25244 9.35349V30.6464C1.25244 30.8712 1.38111 31.0763 1.58361 31.174L19.7452 39.9417C19.8256 39.9805 19.9128 40 19.9999 40C20.087 40 20.1742 39.9805 20.2547 39.9417L38.4163 31.174C38.6188 31.0763 38.7474 30.8712 38.7474 30.6464V9.35357C38.7474 9.12857 38.6187 8.92365 38.4163 8.82584ZM19.9999 1.23654L36.8138 9.35349L31.9398 11.7065C31.9089 11.6829 31.8763 11.6612 31.8406 11.644L15.141 3.58224L19.9999 1.23654ZM13.8177 4.24474L30.607 12.3499L27.1684 14.01L10.386 5.9081L13.8177 4.24474ZM30.9999 13.4615V19.5979L27.7879 21.1485V15.0121L30.9999 13.4615ZM37.5756 30.2787L20.5859 38.4804V18.4889L24.6385 16.5325C24.9299 16.3918 25.052 16.0415 24.9113 15.7501C24.7706 15.4587 24.4204 15.3364 24.1289 15.4772L19.9999 17.4705L18.3753 16.6861C18.0838 16.5453 17.7335 16.6676 17.5928 16.959C17.4521 17.2504 17.5743 17.6008 17.8657 17.7415L19.414 18.4889V38.4804L2.42432 30.2786V10.287L15.3618 16.5327C15.4439 16.5724 15.5307 16.5912 15.6161 16.5912C15.8339 16.5912 16.0431 16.4691 16.1442 16.2598C16.2849 15.9684 16.1627 15.6181 15.8713 15.4774L3.18611 9.35349L9.00682 6.54349L26.6079 15.0406C26.6105 15.0442 26.6134 15.0474 26.616 15.0509V22.0821C26.616 22.2837 26.7197 22.4711 26.8905 22.5784C26.9853 22.6379 27.0935 22.668 27.202 22.668C27.2889 22.668 27.376 22.6487 27.4567 22.6097L31.8406 20.4934C32.0431 20.3957 32.1717 20.1907 32.1717 19.9658V12.8958L37.5756 10.2871V30.2787Z" fill="#1A1A1A"/>
<path d="M7.2598 28.0063L4.59456 26.7196C4.303 26.5788 3.95284 26.7011 3.81214 26.9925C3.67144 27.2839 3.79362 27.6342 4.08503 27.7749L6.75027 29.0616C6.83238 29.1012 6.91917 29.12 7.00457 29.12C7.22238 29.12 7.4316 28.998 7.53261 28.7887C7.67339 28.4972 7.55121 28.147 7.2598 28.0063Z" fill="#1A1A1A"/>
<path d="M9.71263 26.4096L4.59818 23.9405C4.30669 23.7998 3.95646 23.922 3.81575 24.2135C3.67513 24.5049 3.79732 24.8552 4.08872 24.9959L9.20318 27.465C9.28528 27.5046 9.37208 27.5234 9.45747 27.5234C9.67528 27.5234 9.8845 27.4014 9.98552 27.1921C10.1262 26.9005 10.004 26.5502 9.71263 26.4096Z" fill="#1A1A1A"/>
</g>
<defs>
<clipPath id="clip0_2171_15937">
<rect width="40" height="40" fill="white"/>
</clipPath>
</defs>
</svg>
