<svg width="40" height="40" viewBox="0 0 40 40" fill="none" xmlns="http://www.w3.org/2000/svg">
<path d="M39.7083 5.56499C39.7016 5.44129 39.6559 5.32289 39.5778 5.22677C39.4996 5.13066 39.393 5.06177 39.2733 5.02999L20.4708 0.0199863C20.3717 -0.00641795 20.2674 -0.00641795 20.1683 0.0199863L1.39206 5.02999C1.27275 5.06192 1.16658 5.13072 1.08869 5.22657C1.0108 5.32242 0.965165 5.44042 0.958305 5.56374C0.945805 5.79999 0.664555 11.3875 2.86206 18.4512C4.15331 22.6037 6.03956 26.3937 8.46581 29.7187C11.5021 33.8775 15.3958 37.3112 20.0383 39.925C20.124 39.9731 20.2205 39.9989 20.3188 40C20.417 40.0011 20.514 39.9774 20.6008 39.9312C25.2521 37.4612 29.1521 34.1137 32.1933 29.985C34.6233 26.685 36.5108 22.8825 37.8033 18.685C40.0021 11.5425 39.7208 5.80499 39.7083 5.56374V5.56499ZM36.6708 18.3787C35.4146 22.445 33.5858 26.1225 31.2346 29.31C28.4921 33.0275 25.0246 36.0887 20.9196 38.4187V35.405C26.2421 32.0437 30.2571 27.2875 32.8508 21.26C34.9883 16.2975 35.6846 11.5862 35.8921 8.50874C35.9013 8.37306 35.8631 8.23839 35.7839 8.12779C35.7048 8.0172 35.5897 7.93755 35.4583 7.90249L34.2633 7.58374C34.1144 7.54754 33.9573 7.57105 33.8256 7.64924C33.6938 7.72743 33.5979 7.85408 33.5584 8.0021C33.5189 8.15011 33.5388 8.30772 33.614 8.44119C33.6892 8.57466 33.8137 8.67339 33.9608 8.71624L34.6858 8.90999C34.4471 11.8937 33.7371 16.2375 31.7746 20.7975C29.2896 26.57 25.4558 31.1312 20.3796 34.36C19.8696 34.0225 19.3696 33.6725 18.8858 33.3125C18.7609 33.225 18.6067 33.1896 18.4562 33.2139C18.3056 33.2381 18.1703 33.3201 18.0792 33.4425C17.9881 33.5648 17.9483 33.7179 17.9682 33.8691C17.9881 34.0203 18.0662 34.1579 18.1858 34.2525C18.6908 34.6275 19.2146 34.995 19.7483 35.3462V38.4C15.6396 35.9425 12.1708 32.8 9.42831 29.05C7.07831 25.835 5.24956 22.1662 3.99456 18.145C2.18706 12.3562 2.09831 7.47499 2.11706 6.04999L19.7471 1.34499V4.02124L5.21706 7.89999C5.08521 7.93512 4.96976 8.01515 4.89058 8.12627C4.8114 8.23739 4.77347 8.37265 4.78331 8.50874C4.93456 10.6262 5.36081 13.9212 6.53081 17.5912C8.46581 23.6612 11.7146 28.7237 16.1883 32.6412C16.2462 32.6922 16.3136 32.7312 16.3866 32.756C16.4596 32.7808 16.5368 32.7909 16.6138 32.7856C16.6907 32.7804 16.7659 32.76 16.8349 32.7255C16.9039 32.6911 16.9654 32.6433 17.0158 32.585C17.1179 32.468 17.1694 32.3154 17.1591 32.1605C17.1488 32.0056 17.0775 31.8611 16.9608 31.7587C12.6496 27.9837 9.51706 23.0987 7.64831 17.2362C6.79077 14.5295 6.2349 11.7363 5.99081 8.90749L20.3196 5.08249L31.4283 8.04374C31.5036 8.06639 31.5826 8.07369 31.6607 8.06519C31.7389 8.05669 31.8145 8.03257 31.8831 7.99426C31.9517 7.95595 32.0119 7.90423 32.0602 7.84219C32.1084 7.78014 32.1437 7.70903 32.1639 7.63308C32.1841 7.55713 32.1888 7.4779 32.1778 7.40009C32.1667 7.32228 32.1402 7.24748 32.0997 7.18014C32.0591 7.1128 32.0055 7.05429 31.9419 7.0081C31.8783 6.9619 31.8061 6.92896 31.7296 6.91124L20.9208 4.02874V1.35249L38.5496 6.04999C38.5683 7.49999 38.4833 12.5112 36.6708 18.3787Z" fill="#1A1A1A"/>
<path d="M29.1495 13.6925C28.9794 13.5209 28.7769 13.3848 28.5537 13.2921C28.3305 13.1994 28.0912 13.1519 27.8495 13.1525C27.608 13.1518 27.3687 13.199 27.1455 13.2915C26.9224 13.384 26.7198 13.5199 26.5495 13.6912L19.0808 21.16L15.0033 17.0825C14.8329 16.9113 14.6303 16.7757 14.4072 16.6834C14.184 16.5912 13.9448 16.5441 13.7033 16.545C13.4618 16.5441 13.2226 16.5912 12.9994 16.6834C12.7763 16.7757 12.5736 16.9113 12.4033 17.0825C12.232 17.2528 12.0961 17.4554 12.0037 17.6785C11.9112 17.9016 11.8639 18.1409 11.8645 18.3825C11.8645 18.8737 12.0558 19.3362 12.402 19.6825L17.7808 25.06C17.951 25.2313 18.1536 25.3672 18.3768 25.4597C18.5999 25.5522 18.8392 25.5994 19.0808 25.5987C19.3223 25.5996 19.5615 25.5525 19.7847 25.4603C20.0078 25.368 20.2104 25.2324 20.3808 25.0612L29.1495 16.2925C29.497 15.945 29.687 15.4825 29.687 14.9925C29.6879 14.751 29.6408 14.5118 29.5486 14.2886C29.4563 14.0655 29.3207 13.8628 29.1495 13.6925ZM28.3208 15.4625L19.552 24.2312C19.4905 24.2937 19.4172 24.3434 19.3362 24.3773C19.2553 24.4112 19.1685 24.4286 19.0808 24.4286C18.9931 24.4286 18.9062 24.4112 18.8253 24.3773C18.7444 24.3434 18.6711 24.2937 18.6095 24.2312L13.232 18.8537C13.1697 18.7921 13.1202 18.7187 13.0864 18.6378C13.0526 18.5569 13.0352 18.4701 13.0352 18.3825C13.0352 18.2948 13.0526 18.208 13.0864 18.1271C13.1202 18.0462 13.1697 17.9728 13.232 17.9112C13.2936 17.8487 13.3669 17.7991 13.4478 17.7652C13.5287 17.7313 13.6156 17.7138 13.7033 17.7138C13.791 17.7138 13.8778 17.7313 13.9587 17.7652C14.0397 17.7991 14.113 17.8487 14.1745 17.9112L18.6658 22.4025C18.8958 22.6312 19.2658 22.6312 19.4945 22.4025L27.3783 14.52C27.4399 14.4576 27.5133 14.4081 27.5942 14.3743C27.6751 14.3405 27.7619 14.3231 27.8495 14.3231C27.9372 14.3231 28.024 14.3405 28.1049 14.3743C28.1858 14.4081 28.2592 14.4576 28.3208 14.52C28.3831 14.5816 28.4327 14.655 28.4664 14.7359C28.5002 14.8168 28.5176 14.9036 28.5176 14.9912C28.5176 15.0789 28.5002 15.1657 28.4664 15.2466C28.4327 15.3275 28.3831 15.4009 28.3208 15.4625Z" fill="#1A1A1A"/>
</svg>
