<svg width="48" height="48" viewBox="0 0 48 48" fill="none" xmlns="http://www.w3.org/2000/svg">
<g clip-path="url(#clip0_2171_15813)">
<path d="M10.473 34.9454C10.0871 34.9454 9.71703 35.0987 9.44416 35.3716C9.1713 35.6445 9.01801 36.0145 9.01801 36.4004C9.01801 36.7863 9.1713 37.1564 9.44416 37.4293C9.71703 37.7021 10.0871 37.8554 10.473 37.8554C10.8589 37.8554 11.229 37.7021 11.5018 37.4293C11.7747 37.1564 11.928 36.7863 11.928 36.4004C11.928 36.0145 11.7747 35.6445 11.5018 35.3716C11.229 35.0987 10.8589 34.9454 10.473 34.9454Z" fill="#1A1A1A"/>
<path d="M40.533 34.9454C40.1471 34.9454 39.777 35.0987 39.5042 35.3716C39.2313 35.6445 39.078 36.0145 39.078 36.4004C39.078 36.7863 39.2313 37.1564 39.5042 37.4293C39.777 37.7021 40.1471 37.8554 40.533 37.8554C40.9189 37.8554 41.289 37.7021 41.5618 37.4293C41.8347 37.1564 41.988 36.7863 41.988 36.4004C41.988 36.0145 41.8347 35.6445 41.5618 35.3716C41.289 35.0987 40.9189 34.9454 40.533 34.9454Z" fill="#1A1A1A"/>
<path d="M45.978 23.946L41.07 22.311L37.9875 14.2965C37.7708 13.74 37.3917 13.2616 36.8995 12.9235C36.4072 12.5854 35.8247 12.4031 35.2275 12.4005H22.521L22.506 12.225C22.4761 11.8619 22.3103 11.5234 22.0417 11.2773C21.773 11.0311 21.4213 10.8955 21.057 10.8975H18.69V10.095C18.6888 9.31098 18.3767 8.55945 17.8222 8.00521C17.2677 7.45098 16.516 7.13928 15.732 7.13849C14.9483 7.13968 14.1969 7.45155 13.6428 8.00574C13.0886 8.55994 12.7767 9.31124 12.7755 10.095V10.896H10.41C10.0457 10.894 9.69399 11.0296 9.42534 11.2758C9.15669 11.5219 8.99085 11.8604 8.961 12.2235L8.946 12.399H1.455C1.06911 12.399 0.699025 12.5523 0.42616 12.8251C0.153294 13.098 0 13.4681 0 13.854L0 34.1445C0 34.9455 0.6525 35.5995 1.455 35.5995H6.0855C5.96921 36.2422 5.99535 36.9027 6.16206 37.5342C6.32877 38.1658 6.632 38.7531 7.05037 39.2547C7.46874 39.7563 7.99206 40.16 8.58343 40.4374C9.1748 40.7148 9.81982 40.859 10.473 40.86C11.1263 40.8591 11.7715 40.7148 12.363 40.4373C12.9545 40.1599 13.4779 39.756 13.8963 39.2542C14.3147 38.7524 14.6179 38.1649 14.7845 37.5332C14.9511 36.9014 14.977 36.2408 14.8605 35.598H36.1455C36.0292 36.2407 36.0553 36.9012 36.2221 37.5327C36.3888 38.1643 36.692 38.7516 37.1104 39.2532C37.5287 39.7548 38.0521 40.1585 38.6434 40.4359C39.2348 40.7133 39.8798 40.8575 40.533 40.8585C41.2043 40.8574 41.8666 40.7051 42.4709 40.4127C43.0751 40.1204 43.6057 39.6956 44.0231 39.1699C44.4405 38.6442 44.7341 38.0312 44.8819 37.3765C45.0298 36.7217 45.0281 36.042 44.877 35.388L46.365 34.644C46.8571 34.4 47.2711 34.0232 47.5601 33.556C47.849 33.0889 48.0014 32.5502 48 32.001V26.751C48.0002 26.1303 47.805 25.5253 47.4421 25.0219C47.0792 24.5184 46.5669 24.142 45.978 23.946ZM37.449 16.812L39.51 22.17H37.2825L35.4975 16.812H37.4475H37.449ZM35.799 22.17H30.012C29.8001 22.1696 29.597 22.0852 29.4471 21.9354C29.2973 21.7855 29.2129 21.5824 29.2125 21.3705V16.812H34.014L35.799 22.17ZM14.184 10.095C14.184 9.23999 14.88 8.54399 15.735 8.54399C16.59 8.54399 17.286 9.23999 17.286 10.095V10.896H14.1825V10.095H14.184ZM8.9895 28.1295L10.362 12.348C10.3628 12.3358 10.3682 12.3243 10.3771 12.316C10.386 12.3076 10.3978 12.303 10.41 12.303H12.7755V13.854C12.7755 14.0406 12.8496 14.2195 12.9816 14.3514C13.1135 14.4834 13.2924 14.5575 13.479 14.5575C13.6656 14.5575 13.8445 14.4834 13.9764 14.3514C14.1084 14.2195 14.1825 14.0406 14.1825 13.854V12.303H17.2845V13.854C17.2845 14.0406 17.3586 14.2195 17.4906 14.3514C17.6225 14.4834 17.8014 14.5575 17.988 14.5575C18.1746 14.5575 18.3535 14.4834 18.4855 14.3514C18.6174 14.2195 18.6915 14.0406 18.6915 13.854V12.303H21.057C21.0825 12.303 21.102 12.3225 21.105 12.348L22.4775 28.128C22.4775 28.1355 22.4775 28.1505 22.464 28.1655C22.449 28.1805 22.434 28.1805 22.428 28.1805H9.039C9.033 28.1805 9.018 28.1805 9.003 28.1655C8.9985 28.1607 8.99509 28.155 8.99302 28.1488C8.99095 28.1426 8.99026 28.136 8.991 28.1295H8.9895ZM10.473 39.4545C9.66313 39.4537 8.88664 39.1317 8.31384 38.5592C7.74104 37.9867 7.41869 37.2104 7.4175 36.4005C7.4175 34.716 8.7885 33.345 10.473 33.345C12.1575 33.345 13.527 34.716 13.527 36.4005C13.5258 37.2101 13.2037 37.9862 12.6312 38.5587C12.0587 39.1312 11.2826 39.4533 10.473 39.4545ZM40.533 39.4545C39.7234 39.4533 38.9473 39.1312 38.3748 38.5587C37.8023 37.9862 37.4802 37.2101 37.479 36.4005C37.479 34.716 38.8485 33.345 40.533 33.345C42.2175 33.345 43.5885 34.716 43.5885 36.4005C43.5873 37.2104 43.265 37.9867 42.6922 38.5592C42.1194 39.1317 41.3429 39.4537 40.533 39.4545ZM46.593 28.182H45.7935C45.6985 28.1776 45.6036 28.1925 45.5145 28.2259C45.4254 28.2592 45.344 28.3102 45.2752 28.3759C45.2064 28.4416 45.1516 28.5206 45.1142 28.608C45.0768 28.6955 45.0575 28.7896 45.0575 28.8847C45.0575 28.9799 45.0768 29.074 45.1142 29.1614C45.1516 29.2489 45.2064 29.3279 45.2752 29.3935C45.344 29.4592 45.4254 29.5103 45.5145 29.5436C45.6036 29.577 45.6985 29.5919 45.7935 29.5875H46.5945V31.9995C46.5945 32.592 46.2645 33.1245 45.7365 33.3885L44.3445 34.0845C43.9468 33.4301 43.3875 32.8891 42.7202 32.5134C42.0529 32.1377 41.3002 31.9401 40.5345 31.9395C38.8755 31.9395 37.428 32.8485 36.6585 34.194H14.3475C13.958 33.5098 13.3943 32.9409 12.7139 32.5449C12.0334 32.149 11.2603 31.9401 10.473 31.9395C8.8155 31.9395 7.368 32.8485 6.5985 34.194H1.4535C1.44103 34.1936 1.4292 34.1884 1.42052 34.1794C1.41184 34.1705 1.40699 34.1585 1.407 34.146V29.5875H5.2125C5.30752 29.5919 5.40244 29.577 5.49153 29.5436C5.58061 29.5103 5.66201 29.4592 5.73081 29.3935C5.7996 29.3279 5.85436 29.2489 5.89177 29.1614C5.92919 29.074 5.94848 28.9799 5.94848 28.8847C5.94848 28.7896 5.92919 28.6955 5.89177 28.608C5.85436 28.5206 5.7996 28.4416 5.73081 28.3759C5.66201 28.3102 5.58061 28.2592 5.49153 28.2259C5.40244 28.1925 5.30752 28.1776 5.2125 28.182H1.4055V13.854C1.4055 13.8285 1.428 13.806 1.455 13.806H8.823L7.5885 28.008C7.57172 28.2087 7.59669 28.4106 7.66184 28.6012C7.72699 28.7917 7.83091 28.9667 7.96704 29.1151C8.10317 29.2635 8.26857 29.3821 8.45281 29.4634C8.63704 29.5447 8.83612 29.5869 9.0375 29.5875H22.428C22.6294 29.5869 22.8286 29.5447 23.0129 29.4634C23.1972 29.3821 23.3627 29.2636 23.4989 29.1152C23.6352 28.9668 23.7392 28.7919 23.8046 28.6013C23.8699 28.4108 23.8951 28.2087 23.8785 28.008L22.6425 13.806H35.2275C35.865 13.806 36.447 14.2065 36.675 14.8005L36.9075 15.4065H28.509C28.3227 15.4065 28.144 15.4804 28.0121 15.612C27.8802 15.7436 27.8059 15.9222 27.8055 16.1085V21.369C27.8055 22.5855 28.7955 23.5755 30.012 23.5755H40.419L45.534 25.281C46.167 25.491 46.5945 26.0835 46.5945 26.751V28.182H46.593Z" fill="#1A1A1A"/>
<path d="M42.7875 28.1819H26.2545C26.1595 28.1775 26.0646 28.1924 25.9755 28.2258C25.8864 28.2591 25.805 28.3102 25.7362 28.3759C25.6674 28.4415 25.6126 28.5205 25.5752 28.6079C25.5378 28.6954 25.5185 28.7895 25.5185 28.8847C25.5185 28.9798 25.5378 29.0739 25.5752 29.1614C25.6126 29.2488 25.6674 29.3278 25.7362 29.3935C25.805 29.4591 25.8864 29.5102 25.9755 29.5435C26.0646 29.5769 26.1595 29.5918 26.2545 29.5874H42.7875C42.9683 29.579 43.1389 29.5014 43.2638 29.3705C43.3888 29.2396 43.4585 29.0656 43.4585 28.8847C43.4585 28.7037 43.3888 28.5297 43.2638 28.3988C43.1389 28.2679 42.9683 28.1903 42.7875 28.1819Z" fill="#1A1A1A"/>
</g>
<defs>
<clipPath id="clip0_2171_15813">
<rect width="48" height="48" fill="white"/>
</clipPath>
</defs>
</svg>
