<svg width="45" height="44" viewBox="0 0 45 44" fill="none" xmlns="http://www.w3.org/2000/svg">
<g clip-path="url(#clip0_2171_15892)">
<path d="M34.3076 32.8034C34.2551 32.3936 34.1082 32.0016 33.8784 31.6583C33.6486 31.3149 33.3423 31.0296 32.9835 30.8248L24.7294 26.0714C24.2164 25.7766 23.6207 25.6589 23.0342 25.7365C22.4477 25.814 21.9031 26.0825 21.4844 26.5004L19.349 28.6371C19.146 28.8398 18.875 28.96 18.5885 28.9745C18.3021 28.989 18.0204 28.8967 17.798 28.7155C16.5106 27.6735 15.2791 26.5642 14.1089 25.3921C12.9368 24.2219 11.8275 22.9904 10.7855 21.703C10.6043 21.4806 10.512 21.1989 10.5265 20.9125C10.541 20.626 10.6612 20.355 10.8639 20.152L13.0006 18.0153C13.4182 17.5967 13.6865 17.0523 13.764 16.4661C13.8415 15.8799 13.724 15.2844 13.4296 14.7716L8.67485 6.51477C8.46995 6.15604 8.18462 5.84975 7.84128 5.61999C7.49795 5.39022 7.10599 5.24325 6.69623 5.19064C6.28704 5.13493 5.87051 5.17499 5.47944 5.30765C5.08837 5.44032 4.73344 5.66197 4.4426 5.95514L1.99235 8.40677C-1.50565 11.9048 2.14498 21.0361 10.3042 29.1954C16.368 35.2591 22.968 38.8341 27.3955 38.8328C28.9245 38.8328 30.195 38.4065 31.0942 37.5073L33.5431 35.057C33.8364 34.766 34.0581 34.4108 34.1908 34.0195C34.3234 33.6282 34.3634 33.2114 34.3076 32.802V32.8034ZM32.6315 34.1454L32.3056 34.4726L25.2354 30.4384C25.0876 30.3632 24.9166 30.3477 24.7578 30.3953C24.599 30.4428 24.4646 30.5497 24.3825 30.6937C24.3004 30.8377 24.2769 31.0078 24.3169 31.1687C24.3569 31.3296 24.4574 31.4689 24.5974 31.5576L31.361 35.4173L30.1812 36.5956C28.8544 37.9239 26.1154 37.8593 22.6696 36.4169C18.9901 34.8796 14.9229 31.9894 11.2159 28.2838C7.50885 24.5768 4.61998 20.5095 3.08273 16.83C1.64035 13.3843 1.57435 10.6453 2.90398 9.3184L4.1621 8.05889L4.60898 8.83577C4.65123 8.90917 4.70753 8.97353 4.77465 9.02517C4.84178 9.07682 4.91842 9.11473 5.0002 9.13676C5.08198 9.15878 5.1673 9.16449 5.25128 9.15354C5.33526 9.14259 5.41627 9.11521 5.48967 9.07296C5.56307 9.0307 5.62743 8.97441 5.67907 8.90728C5.73071 8.84016 5.76863 8.76352 5.79066 8.68174C5.81268 8.59996 5.81838 8.51464 5.80744 8.43066C5.79649 8.34667 5.76911 8.26567 5.72685 8.19227L5.10673 7.11564L5.35423 6.86814C5.50553 6.71544 5.69021 6.59994 5.89374 6.53075C6.09727 6.46155 6.31408 6.44055 6.5271 6.46939C6.96298 6.52714 7.33835 6.77877 7.55835 7.15964L12.3117 15.4151C12.6266 15.9638 12.5345 16.6568 12.0876 17.1036L11.3066 17.8846L7.1046 10.5848C7.01927 10.4365 6.87854 10.3283 6.71338 10.2838C6.54822 10.2393 6.37216 10.2622 6.22392 10.3476C6.07568 10.4329 5.96741 10.5736 5.92293 10.7388C5.87845 10.904 5.9014 11.08 5.98673 11.2283L10.3634 18.8293L9.95085 19.2418C9.52297 19.6694 9.26874 20.2405 9.23725 20.8446C9.20576 21.4487 9.39925 22.0431 9.78035 22.5129C10.8512 23.8359 11.9913 25.1013 13.1959 26.3038C14.3988 27.5084 15.6647 28.6485 16.9881 29.7193C17.4581 30.1005 18.0527 30.294 18.6571 30.2625C19.2615 30.231 19.8327 29.9768 20.2606 29.5488L20.5576 29.2518L22.1485 30.1593C22.2219 30.2017 22.303 30.2292 22.387 30.2401C22.4711 30.2511 22.5565 30.2452 22.6383 30.223C22.7201 30.2008 22.7967 30.1625 22.8637 30.1105C22.9307 30.0585 22.9867 29.9938 23.0285 29.92C23.0705 29.8464 23.0976 29.7653 23.1082 29.6813C23.1189 29.5972 23.1129 29.5119 23.0905 29.4302C23.0682 29.3484 23.0299 29.2719 22.978 29.205C22.9261 29.138 22.8615 29.082 22.7879 29.04L21.5022 28.3071L22.396 27.4134C22.6138 27.1959 22.8972 27.0562 23.2023 27.0156C23.5075 26.9751 23.8174 27.0362 24.0845 27.1893L32.3414 31.9426C32.7222 32.1626 32.9739 32.5366 33.0302 32.9725C33.0591 33.1855 33.0381 33.4024 32.9689 33.6059C32.8997 33.8094 32.7842 33.9941 32.6315 34.1454Z" fill="#1A1A1A"/>
<path d="M21.2851 21.7044H16.4561C16.6816 19.8207 17.8875 18.5419 19.1566 17.1958C20.5206 15.752 21.93 14.2574 21.93 12.0134C21.9289 11.1119 21.5703 10.2476 20.9328 9.61019C20.2954 8.97273 19.4311 8.61413 18.5296 8.61304C17.6279 8.61376 16.7633 8.97221 16.1255 9.6097C15.4877 10.2472 15.129 11.1117 15.1279 12.0134C15.1279 12.1844 15.1958 12.3485 15.3167 12.4694C15.4377 12.5903 15.6017 12.6583 15.7727 12.6583C15.9438 12.6583 16.1078 12.5903 16.2287 12.4694C16.3497 12.3485 16.4176 12.1844 16.4176 12.0134C16.4176 10.8488 17.365 9.90279 18.5296 9.90279C19.6929 9.90279 20.6402 10.8488 20.6402 12.0134C20.6402 13.7459 19.5182 14.9339 18.2202 16.3117C16.771 17.8475 15.1279 19.5883 15.1279 22.3479C15.1279 22.7054 15.4166 22.9942 15.7741 22.9942H21.2851C21.4561 22.9942 21.6202 22.9262 21.7411 22.8053C21.862 22.6843 21.93 22.5203 21.93 22.3493C21.93 22.1783 21.862 22.0142 21.7411 21.8933C21.6202 21.7724 21.4561 21.7044 21.2851 21.7044Z" fill="#1A1A1A"/>
<path d="M29.5529 18.26H28.82V9.25648C28.82 9.08545 28.7521 8.92142 28.6311 8.80049C28.5102 8.67955 28.3462 8.61161 28.1751 8.61161C28.0041 8.61161 27.8401 8.67955 27.7191 8.80049C27.5982 8.92142 27.5303 9.08545 27.5303 9.25648V18.2572H24.0969L25.3701 9.34723C25.3822 9.26336 25.3775 9.17794 25.3565 9.09586C25.3355 9.01377 25.2986 8.93663 25.2477 8.86883C25.1969 8.80103 25.1332 8.74391 25.0604 8.70072C24.9875 8.65753 24.9068 8.62912 24.8229 8.61711C24.739 8.6051 24.6536 8.60973 24.5715 8.63073C24.4894 8.65174 24.4123 8.6887 24.3445 8.73952C24.2767 8.79034 24.2196 8.85401 24.1764 8.9269C24.1332 8.9998 24.1048 9.08048 24.0928 9.16436L22.715 18.8114C22.7023 18.9027 22.7092 18.9958 22.7354 19.0842C22.7616 19.1727 22.8064 19.2545 22.8668 19.3242C22.9273 19.3938 23.0019 19.4498 23.0858 19.4882C23.1697 19.5267 23.2608 19.5467 23.353 19.547H27.5316V22.3465C27.5316 22.4312 27.5483 22.515 27.5807 22.5933C27.6131 22.6715 27.6606 22.7426 27.7205 22.8025C27.7804 22.8624 27.8515 22.9099 27.9297 22.9423C28.008 22.9747 28.0918 22.9914 28.1765 22.9914C28.2612 22.9914 28.3451 22.9747 28.4233 22.9423C28.5015 22.9099 28.5726 22.8624 28.6325 22.8025C28.6924 22.7426 28.7399 22.6715 28.7723 22.5933C28.8047 22.515 28.8214 22.4312 28.8214 22.3465V19.547H29.5543C29.7253 19.547 29.8893 19.479 30.0103 19.3581C30.1312 19.2372 30.1991 19.0731 30.1991 18.9021C30.1991 18.7311 30.1312 18.5671 30.0103 18.4461C29.8893 18.3252 29.7253 18.2572 29.5543 18.2572L29.5529 18.26Z" fill="#1A1A1A"/>
<path d="M44.5433 8.87704C44.4834 8.79512 44.4049 8.72852 44.3144 8.68264C44.2238 8.63677 44.1237 8.61292 44.0222 8.61304H39.1987C39.0277 8.61304 38.8636 8.68098 38.7427 8.80192C38.6218 8.92285 38.5538 9.08688 38.5538 9.25791C38.5538 9.42894 38.6218 9.59297 38.7427 9.71391C38.8636 9.83485 39.0277 9.90279 39.1987 9.90279H43.1422L39.2743 22.154C39.2274 22.3157 39.2456 22.4893 39.325 22.6377C39.4043 22.7861 39.5386 22.8977 39.6991 22.9485C39.8595 22.9993 40.0335 22.9853 40.1838 22.9096C40.3341 22.8339 40.4489 22.7024 40.5036 22.5432L44.6368 9.45179C44.6671 9.35525 44.6743 9.25294 44.6578 9.15312C44.6413 9.05329 44.6017 8.95872 44.542 8.87704H44.5433Z" fill="#1A1A1A"/>
<path d="M36.6161 6.56978C36.4517 6.52411 36.2758 6.5455 36.1271 6.62927C35.9784 6.71303 35.8689 6.85234 35.8228 7.01666L30.9993 24.2413C30.9574 24.4046 30.9811 24.5778 31.0653 24.7238C31.1495 24.8698 31.2876 24.977 31.4499 25.0225C31.6122 25.068 31.7859 25.0481 31.9338 24.9671C32.0816 24.8861 32.1918 24.7504 32.2409 24.5892L37.063 7.36453C37.0858 7.28291 37.0923 7.1976 37.0821 7.11348C37.0719 7.02936 37.0452 6.94806 37.0036 6.87425C36.962 6.80044 36.9062 6.73556 36.8395 6.68332C36.7728 6.63108 36.6964 6.59249 36.6148 6.56978H36.6161Z" fill="#1A1A1A"/>
</g>
<defs>
<clipPath id="clip0_2171_15892">
<rect width="44" height="44" fill="white" transform="translate(0.666687)"/>
</clipPath>
</defs>
</svg>
